<?xml version="1.0" encoding="UTF-8" standalone="no"?>
<!DOCTYPE svg PUBLIC "-//W3C//DTD SVG 1.1//EN" "http://www.w3.org/Graphics/SVG/1.1/DTD/svg11.dtd">
<svg width="100%" height="100%" viewBox="0 0 591 551" version="1.1" xmlns="http://www.w3.org/2000/svg" xmlns:xlink="http://www.w3.org/1999/xlink" xml:space="preserve" xmlns:serif="http://www.serif.com/" style="fill-rule:evenodd;clip-rule:evenodd;stroke-linejoin:round;stroke-miterlimit:2;">
    <g transform="matrix(1,0,0,1,-2328.04,-315.22)">
        <g transform="matrix(1,0,0,1,2032.76,0)">
            <g id="icon" transform="matrix(8.2021,0,0,8.2021,196.85,248.205)">
                <g id="network" transform="matrix(0.819385,0,0,0.819385,8.66951,27.7828)">
                    <path id="branch" d="M50,32L68,32C69.2,32 70,32.8 70,34L70,49.4C70,50.4 69.2,51.4 68,51.4C66.8,51.4 66,50.6 66,49.4L66,36L30,36L30,49C30,50.2 29.2,51 28,51C26.8,51 26,50.2 26,49L26,34C26,32.8 26.8,32 28,32L46,32L46,20C46,18.8 46.8,18 48,18C49.2,18 50,18.8 50,20L50,32Z" style="fill:rgb(22,61,100);"/>
                    <circle id="node-3" serif:id="node 3" cx="28" cy="50" r="8" style="fill:url(#_Linear1);"/>
                    <circle id="node-2" serif:id="node 2" cx="68" cy="50" r="8" style="fill:url(#_Linear2);"/>
                    <circle id="node-1" serif:id="node 1" cx="48" cy="20" r="8" style="fill:url(#_Linear3);"/>
                </g>
                <g id="signal-wave" serif:id="signal wave">
                    <g id="wave-3" serif:id="wave 3" transform="matrix(-0.550107,0,0,0.550107,66.1834,8.9296)">
                        <path d="M62.117,62.903C61.507,47.387 48.719,34.977 33.054,34.977C17.39,34.977 4.601,47.387 3.992,62.903C3.974,63.046 3.966,63.192 3.966,63.34C3.966,63.418 3.968,63.496 3.973,63.573C3.97,63.736 3.969,63.899 3.969,64.062C3.969,64.35 4.07,64.573 4.247,64.741C4.796,66.046 6.086,66.964 7.59,66.964C9.326,66.964 10.778,65.741 11.132,64.11C11.172,64.089 11.194,64.072 11.194,64.062C11.194,63.939 11.195,63.817 11.197,63.694C11.208,63.578 11.214,63.459 11.214,63.34C11.214,63.289 11.213,63.239 11.211,63.189C11.67,51.528 21.281,42.201 33.054,42.201C44.827,42.201 54.439,51.528 54.898,63.189C54.896,63.239 54.895,63.289 54.895,63.34C54.895,63.459 54.9,63.578 54.912,63.694C54.914,63.817 54.915,63.939 54.915,64.062C54.915,64.072 54.936,64.089 54.977,64.11C55.33,65.741 56.783,66.964 58.519,66.964C60.022,66.964 61.313,66.046 61.861,64.741C62.039,64.573 62.14,64.35 62.14,64.062C62.14,63.899 62.138,63.736 62.136,63.573C62.14,63.496 62.143,63.418 62.143,63.34C62.143,63.192 62.134,63.046 62.117,62.903Z" style="fill:rgb(76,162,228);"/>
                    </g>
                    <g id="wave-2" serif:id="wave 2" transform="matrix(0.249209,0,0,0.249209,58.617,47.3598)">
                        <path d="M-146.933,-12.798C-146.933,-70.379 -100.184,-117.128 -42.603,-117.128C14.978,-117.128 61.727,-70.379 61.727,-12.798C61.727,-0.465 59.583,11.371 55.647,22.357C54.64,25.623 51.595,28 48,28C43.585,28 40,24.415 40,20C40,18.762 40.282,17.59 40.784,16.543C44.019,7.361 45.779,-2.515 45.779,-12.798C45.779,-61.577 6.177,-101.18 -42.603,-101.18C-91.382,-101.18 -130.985,-61.577 -130.985,-12.798C-130.985,-2.515 -129.225,7.361 -125.99,16.543C-125.487,17.59 -125.206,18.762 -125.206,20C-125.206,24.415 -128.79,28 -133.206,28C-136.801,28 -139.846,25.623 -140.852,22.357C-144.788,11.371 -146.933,-0.465 -146.933,-12.798Z" style="fill:rgb(138,193,239);"/>
                    </g>
                    <g id="wave-1" serif:id="wave 1" transform="matrix(-1.23774,0,0,1.23774,88.9126,-35.1216)">
                        <path d="M62.14,64.062C62.14,48.009 49.107,34.977 33.054,34.977C17.002,34.977 3.969,48.009 3.969,64.062C3.969,68.87 5.138,73.406 7.207,77.403C7.452,77.98 8.024,78.384 8.69,78.384C9.579,78.384 10.3,77.662 10.3,76.773C10.3,76.458 10.209,76.163 10.052,75.915C8.217,72.363 7.18,68.333 7.18,64.062C7.18,49.782 18.774,38.188 33.054,38.188C47.335,38.188 58.929,49.782 58.929,64.062C58.929,68.333 57.892,72.363 56.056,75.915C55.899,76.163 55.808,76.458 55.808,76.773C55.808,77.662 56.53,78.384 57.419,78.384C58.084,78.384 58.656,77.98 58.902,77.403C60.971,73.406 62.14,68.87 62.14,64.062Z" style="fill:rgb(193,221,246);"/>
                    </g>
                </g>
            </g>
        </g>
    </g>
    <defs>
        <linearGradient id="_Linear1" x1="0" y1="0" x2="1" y2="0" gradientUnits="userSpaceOnUse" gradientTransform="matrix(13.404,11.618,-11.618,13.404,20.99,43.924)"><stop offset="0" style="stop-color:rgb(76,162,228);stop-opacity:1"/><stop offset="1" style="stop-color:rgb(23,105,178);stop-opacity:1"/></linearGradient>
        <linearGradient id="_Linear2" x1="0" y1="0" x2="1" y2="0" gradientUnits="userSpaceOnUse" gradientTransform="matrix(12.128,12,-12,12.128,61.626,43.692)"><stop offset="0" style="stop-color:rgb(76,162,228);stop-opacity:1"/><stop offset="1" style="stop-color:rgb(23,105,178);stop-opacity:1"/></linearGradient>
        <linearGradient id="_Linear3" x1="0" y1="0" x2="1" y2="0" gradientUnits="userSpaceOnUse" gradientTransform="matrix(12.008,12.006,-12.006,12.008,41.446,13.446)"><stop offset="0" style="stop-color:rgb(76,162,228);stop-opacity:1"/><stop offset="1" style="stop-color:rgb(23,105,178);stop-opacity:1"/></linearGradient>
    </defs>
</svg>
