<svg width="145" height="39" viewBox="0 0 145 39" fill="none" xmlns="http://www.w3.org/2000/svg">
<g filter="url(#filter0_dd_1019_33137)">
<path fill-rule="evenodd" clip-rule="evenodd" d="M19.7149 23.9153H26.265C26.7017 23.9153 26.9928 24.2275 26.9928 24.6959V30.7067C26.9928 31.097 26.7017 31.4873 26.265 31.4873C25.8283 31.4873 25.5372 31.1751 25.5372 30.7067V25.4765H12.437V30.5506C12.437 31.019 12.1459 31.3312 11.7092 31.3312C11.2726 31.3312 10.9814 31.019 10.9814 30.5506V24.6959C10.9814 24.2275 11.2726 23.9153 11.7092 23.9153H18.2593V19.2316C18.2593 18.7632 18.5505 18.4509 18.9871 18.4509C19.4238 18.4509 19.7149 18.7632 19.7149 19.2316V23.9153Z" fill="#163D64"/>
<path d="M11.709 34.0633C13.3168 34.0633 14.6202 32.6654 14.6202 30.9409C14.6202 29.2163 13.3168 27.8184 11.709 27.8184C10.1012 27.8184 8.79785 29.2163 8.79785 30.9409C8.79785 32.6654 10.1012 34.0633 11.709 34.0633Z" fill="url(#paint0_linear_1019_33137)"/>
<path d="M26.2647 34.0633C27.8725 34.0633 29.1758 32.6654 29.1758 30.9409C29.1758 29.2163 27.8725 27.8184 26.2647 27.8184C24.6569 27.8184 23.3535 29.2163 23.3535 30.9409C23.3535 32.6654 24.6569 34.0633 26.2647 34.0633Z" fill="url(#paint1_linear_1019_33137)"/>
<path d="M18.9873 22.3541C20.5951 22.3541 21.8985 20.9561 21.8985 19.2316C21.8985 17.5071 20.5951 16.1091 18.9873 16.1091C17.3795 16.1091 16.0762 17.5071 16.0762 19.2316C16.0762 20.9561 17.3795 22.3541 18.9873 22.3541Z" fill="url(#paint2_linear_1019_33137)"/>
<path fill-rule="evenodd" clip-rule="evenodd" d="M11.8871 18.9279C12.0361 14.862 15.1603 11.6101 18.9874 11.6101C22.8142 11.6101 25.9386 14.862 26.0874 18.9279C26.0918 18.9654 26.0938 19.0036 26.0938 19.0424C26.0938 19.0628 26.0933 19.0833 26.092 19.1035C26.0928 19.1462 26.093 19.1889 26.093 19.2316C26.093 19.3071 26.0683 19.3655 26.0251 19.4095C25.891 19.7515 25.5758 19.992 25.2084 19.992C24.7843 19.992 24.4295 19.6716 24.3431 19.2442C24.3333 19.2387 24.3279 19.2342 24.3279 19.2316C24.3279 19.1994 24.3277 19.1674 24.3272 19.1352C24.3245 19.1048 24.323 19.0736 24.323 19.0424C24.323 19.029 24.3233 19.0159 24.3238 19.0028C24.2116 15.9472 21.8636 13.5031 18.9874 13.5031C16.1111 13.5031 13.7629 15.9472 13.6507 19.0028C13.6512 19.0159 13.6515 19.029 13.6515 19.0424C13.6515 19.0736 13.6503 19.1048 13.6473 19.1352C13.6468 19.1674 13.6466 19.1994 13.6466 19.2316C13.6466 19.2342 13.6415 19.2387 13.6314 19.2442C13.5452 19.6716 13.1902 19.992 12.7661 19.992C12.3989 19.992 12.0835 19.7515 11.9496 19.4095C11.9061 19.3655 11.8815 19.3071 11.8815 19.2316C11.8815 19.1889 11.882 19.1462 11.8825 19.1035C11.8815 19.0833 11.8807 19.0628 11.8807 19.0424C11.8807 19.0036 11.8829 18.9654 11.8871 18.9279Z" fill="#4CA2E4"/>
<path fill-rule="evenodd" clip-rule="evenodd" d="M7.44043 19.2314C7.44043 12.396 12.6144 6.84644 18.9872 6.84644C25.36 6.84644 30.534 12.396 30.534 19.2314C30.534 20.6955 30.2967 22.1005 29.8611 23.4047C29.7496 23.7924 29.4126 24.0746 29.0147 24.0746C28.5261 24.0746 28.1293 23.649 28.1293 23.1249C28.1293 22.9779 28.1605 22.8388 28.2161 22.7145C28.5741 21.6245 28.7689 20.4521 28.7689 19.2314C28.7689 13.4409 24.3859 8.73962 18.9872 8.73962C13.5886 8.73962 9.20548 13.4409 9.20548 19.2314C9.20548 20.4521 9.40027 21.6245 9.75831 22.7145C9.81398 22.8388 9.84507 22.9779 9.84507 23.1249C9.84507 23.649 9.44841 24.0746 8.95967 24.0746C8.56179 24.0746 8.22479 23.7924 8.11345 23.4047C7.67783 22.1005 7.44043 20.6955 7.44043 19.2314Z" fill="#8AC1EF"/>
<path fill-rule="evenodd" clip-rule="evenodd" d="M2.99866 19.2316C2.99866 9.76684 10.1628 2.08325 18.9869 2.08325C27.8105 2.08325 34.9746 9.76684 34.9746 19.2316C34.9746 22.0664 34.332 24.7407 33.1947 27.0974C33.06 27.4376 32.7456 27.6757 32.3795 27.6757C31.8909 27.6757 31.4945 27.2501 31.4945 26.7259C31.4945 26.5402 31.5446 26.3663 31.6309 26.22C32.6395 24.1258 33.2096 21.7497 33.2096 19.2316C33.2096 10.8122 26.8365 3.97644 18.9869 3.97644C11.1368 3.97644 4.76371 10.8122 4.76371 19.2316C4.76371 21.7497 5.33373 24.1258 6.34296 26.22C6.42926 26.3663 6.47929 26.5402 6.47929 26.7259C6.47929 27.2501 6.08241 27.6757 5.59374 27.6757C5.2282 27.6757 4.91377 27.4376 4.77855 27.0974C3.64124 24.7407 2.99866 22.0664 2.99866 19.2316Z" fill="#C1DDF6"/>
</g>
<path d="M45 8.3667H49.8179L55.5269 24.3656H55.841V8.3667H58.4589V26.696H53.5886L47.9331 10.7234H47.6189V26.696H45V8.3667Z" fill="#0F2842"/>
<path d="M61.3398 20.176C61.3398 18.2733 61.9414 16.676 63.1467 15.3842C64.3509 14.0924 65.8788 13.4465 67.7284 13.4465C69.5962 13.4465 71.1113 14.0575 72.2717 15.2794C73.4332 16.5014 74.0133 18.055 74.0133 19.9404V21.1711H63.9053C63.9759 22.3231 64.3862 23.2352 65.1363 23.9073C65.8874 24.5794 66.8384 24.9154 67.9902 24.9154C69.6667 24.9154 70.888 24.1474 71.6563 22.6112L73.7249 23.7895C72.3807 25.9715 70.4873 27.0626 68.0426 27.0626C66.0701 27.0626 64.4599 26.4036 63.2119 25.0856C61.9639 23.7676 61.3398 22.1311 61.3398 20.176ZM63.9053 19.181H71.4468C71.4116 18.0812 71.0632 17.2084 70.3997 16.5625C69.7361 15.9166 68.8461 15.5937 67.7284 15.5937C66.6118 15.5937 65.7164 15.9079 65.0443 16.5363C64.3722 17.1647 63.993 18.0463 63.9053 19.181Z" fill="#0F2842"/>
<path d="M75.1396 13.8654H78.6999V9.41406H81.1618V13.8654H84.9325V16.0126H81.1618V23.8157C81.1618 24.3044 81.3883 24.5488 81.8424 24.5488H84.1995V26.6959H80.8476C80.2194 26.6959 79.7043 26.4909 79.3025 26.0806C78.9008 25.6704 78.6999 25.1423 78.6999 24.4964V16.0126H75.1396V13.8654Z" fill="#0F2842"/>
<path d="M93.4685 8C95.441 8 97.0512 8.50626 98.2992 9.51877C99.5472 10.5313 100.171 11.9452 100.171 13.7607V14.5986H97.5534V13.9702C97.5534 12.818 97.1826 11.9277 96.44 11.2993C95.6985 10.6709 94.708 10.3567 93.4685 10.3567C92.4385 10.3567 91.5965 10.6054 90.9415 11.1029C90.2865 11.6004 89.9595 12.2507 89.9595 13.0537C89.9595 13.8567 90.2384 14.4676 90.7972 14.8866C91.3561 15.3056 92.307 15.6634 93.6512 15.9602L94.8554 16.222C96.6537 16.606 98.0161 17.217 98.9414 18.0549C99.8656 18.8929 100.328 20.0624 100.328 21.5637C100.328 23.2221 99.7171 24.5531 98.4958 25.5569C97.2735 26.5606 95.7027 27.0625 93.7826 27.0625C91.5484 27.0625 89.7757 26.4603 88.4668 25.2558C87.1579 24.0513 86.5029 22.4365 86.5029 20.4116V19.5737H89.1219V20.2021C89.1219 21.651 89.5279 22.7638 90.3388 23.5406C91.1509 24.3175 92.3071 24.7059 93.8083 24.7059C94.9954 24.7059 95.9421 24.4179 96.6494 23.8418C97.3568 23.2657 97.7105 22.5326 97.7105 21.6423C97.7105 20.8044 97.4305 20.1673 96.8717 19.7308C96.3139 19.2944 95.4239 18.9452 94.2015 18.6834L92.9973 18.4215C91.1638 18.0201 89.7629 17.4265 88.7938 16.641C87.8257 15.8554 87.3407 14.6684 87.3407 13.0799C87.3407 11.5612 87.9262 10.3349 89.0951 9.40091C90.2652 8.46704 91.7226 8 93.4685 8Z" fill="#0F2842"/>
<path d="M104.373 25.1379C103.108 23.8548 102.476 22.2357 102.476 20.2806C102.476 18.3255 103.104 16.7064 104.36 15.4234C105.618 14.1403 107.206 13.4988 109.126 13.4988C110.802 13.4988 112.195 13.9613 113.303 14.8865C114.411 15.8118 115.097 17.0075 115.359 18.4738L112.949 18.9714C112.844 18.0287 112.456 17.2563 111.784 16.6541C111.112 16.0518 110.226 15.7506 109.126 15.7506C107.886 15.7506 106.879 16.1652 106.102 16.9944C105.325 17.8237 104.936 18.919 104.936 20.2806C104.936 21.6423 105.33 22.7376 106.115 23.5669C106.9 24.396 107.922 24.8106 109.178 24.8106C111.274 24.8106 112.539 23.7457 112.976 21.6161L115.411 22.0874C115.079 23.4838 114.394 24.6622 113.355 25.6223C112.316 26.5824 110.924 27.0625 109.178 27.0625C107.241 27.0625 105.639 26.4209 104.373 25.1379Z" fill="#0F2842"/>
<path d="M117.609 17.2432C118.116 16.1608 118.888 15.2663 119.927 14.5593C120.966 13.8522 122.226 13.4988 123.711 13.4988C125.439 13.4988 126.818 13.9613 127.848 14.8865C128.878 15.8118 129.393 17.0511 129.393 18.6048V26.6959H126.983V24.6797H126.617C126.303 25.3604 125.771 25.9278 125.019 26.3816C124.269 26.8355 123.292 27.0625 122.088 27.0625C120.656 27.0625 119.508 26.7046 118.644 25.9889C117.78 25.2731 117.348 24.3393 117.348 23.1871C117.348 20.9003 118.98 19.5998 122.245 19.2856L126.983 18.8404V18.5C126.983 17.6273 126.692 16.942 126.106 16.4445C125.522 15.947 124.705 15.6983 123.658 15.6983C121.721 15.6983 120.411 16.5362 119.73 18.2121L117.609 17.2432ZM119.835 23.0824C119.835 23.6934 120.071 24.1691 120.542 24.5095C121.014 24.8498 121.669 25.02 122.506 25.02C123.955 25.02 125.063 24.6404 125.832 23.881C126.6 23.1216 126.983 22.1572 126.983 20.9876V20.7782L122.506 21.1971C120.725 21.3542 119.835 21.9826 119.835 23.0824Z" fill="#0F2842"/>
<path d="M132.902 13.8655H135.311V16.0389H135.677C136.481 14.4503 137.921 13.656 139.998 13.656C141.429 13.656 142.621 14.1187 143.572 15.0439C144.523 15.969 144.999 17.2782 144.999 18.9716V26.696H142.538V19.181C142.538 18.0812 142.255 17.2434 141.687 16.6673C141.12 16.0912 140.304 15.8032 139.239 15.8032C138.034 15.8032 137.088 16.1698 136.397 16.903C135.708 17.6361 135.363 18.666 135.363 19.9928V26.696H132.902V13.8655Z" fill="#0F2842"/>
<path d="M120.359 28.8881C120.332 28.6487 120.221 28.4628 120.026 28.3305C119.83 28.1981 119.584 28.132 119.287 28.132C119.075 28.132 118.891 28.1652 118.736 28.2318C118.581 28.2984 118.461 28.3895 118.376 28.505C118.29 28.6204 118.248 28.7515 118.248 28.8982C118.248 29.0212 118.277 29.1274 118.335 29.2168C118.393 29.3061 118.47 29.3807 118.565 29.4406C118.661 29.5004 118.763 29.5502 118.872 29.5898C118.982 29.6294 119.087 29.6618 119.189 29.6871L119.695 29.8186C119.86 29.8591 120.029 29.9139 120.203 29.983C120.376 30.0521 120.537 30.1431 120.686 30.2561C120.834 30.369 120.954 30.509 121.046 30.6759C121.138 30.8427 121.184 31.0425 121.184 31.2752C121.184 31.5685 121.108 31.829 120.957 32.0565C120.807 32.2841 120.588 32.4637 120.303 32.5952C120.017 32.7266 119.672 32.7924 119.267 32.7924C118.879 32.7924 118.544 32.7309 118.261 32.6078C117.977 32.4847 117.756 32.3098 117.596 32.0831C117.435 31.8564 117.347 31.587 117.33 31.2752H118.114C118.129 31.4623 118.19 31.6178 118.297 31.7417C118.404 31.8656 118.542 31.9575 118.709 32.0173C118.877 32.0772 119.061 32.1071 119.262 32.1071C119.483 32.1071 119.68 32.0721 119.853 32.0022C120.025 31.9322 120.161 31.8344 120.261 31.7088C120.36 31.5832 120.41 31.4362 120.41 31.2676C120.41 31.1142 120.367 30.9886 120.28 30.8908C120.193 30.793 120.076 30.7121 119.928 30.6481C119.781 30.584 119.614 30.5275 119.429 30.4786L118.817 30.3117C118.402 30.1988 118.074 30.0327 117.832 29.8136C117.59 29.5944 117.469 29.3045 117.469 28.9437C117.469 28.6453 117.55 28.3848 117.712 28.1623C117.874 27.9398 118.093 27.7666 118.369 27.6426C118.646 27.5187 118.958 27.4568 119.305 27.4568C119.656 27.4568 119.965 27.5183 120.234 27.6414C120.503 27.7645 120.715 27.9334 120.87 28.1484C121.025 28.3633 121.106 28.6099 121.113 28.8881H120.359Z" fill="url(#paint3_linear_1019_33137)"/>
<path d="M123.73 32.7848C123.348 32.7848 123.019 32.7026 122.743 32.5382C122.467 32.3739 122.255 32.1421 122.106 31.8428C121.957 31.5436 121.882 31.1926 121.882 30.7896C121.882 30.3918 121.957 30.0411 122.106 29.7377C122.255 29.4342 122.464 29.1974 122.733 29.0271C123.002 28.8568 123.316 28.7717 123.677 28.7717C123.896 28.7717 124.109 28.808 124.315 28.8805C124.52 28.9529 124.705 29.0667 124.868 29.2218C125.032 29.3769 125.161 29.578 125.255 29.8249C125.35 30.0719 125.397 30.3716 125.397 30.7239V30.9919H122.309V30.4255H124.656C124.656 30.2266 124.616 30.05 124.535 29.8957C124.454 29.7415 124.34 29.6197 124.195 29.5303C124.049 29.441 123.878 29.3963 123.682 29.3963C123.47 29.3963 123.285 29.4482 123.127 29.5518C122.97 29.6555 122.848 29.7904 122.763 29.9564C122.678 30.1225 122.635 30.3024 122.635 30.4963V30.9388C122.635 31.1985 122.682 31.4193 122.773 31.6014C122.865 31.7834 122.994 31.9221 123.159 32.0173C123.324 32.1126 123.517 32.1602 123.738 32.1602C123.881 32.1602 124.012 32.1395 124.13 32.0983C124.248 32.0569 124.35 31.995 124.436 31.9124C124.522 31.8298 124.588 31.7278 124.633 31.6064L125.349 31.7354C125.291 31.9461 125.189 32.1303 125.042 32.2879C124.894 32.4455 124.709 32.5677 124.488 32.6546C124.266 32.7414 124.014 32.7848 123.73 32.7848Z" fill="url(#paint4_linear_1019_33137)"/>
<path d="M127.875 32.7848C127.499 32.7848 127.176 32.6993 126.905 32.5281C126.635 32.357 126.427 32.1206 126.282 31.8188C126.137 31.5171 126.064 31.1715 126.064 30.7821C126.064 30.3876 126.139 30.039 126.287 29.7364C126.435 29.4338 126.644 29.1974 126.914 29.0271C127.184 28.8568 127.502 28.7717 127.867 28.7717C128.162 28.7717 128.425 28.8261 128.656 28.9348C128.887 29.0436 129.074 29.1957 129.217 29.3913C129.359 29.5868 129.444 29.8152 129.471 30.0765H128.735C128.694 29.8945 128.602 29.7377 128.458 29.6062C128.314 29.4747 128.121 29.409 127.88 29.409C127.669 29.409 127.485 29.4642 127.328 29.5746C127.17 29.685 127.047 29.8418 126.96 30.0449C126.872 30.2481 126.828 30.4879 126.828 30.7644C126.828 31.0476 126.871 31.292 126.957 31.4977C127.043 31.7034 127.165 31.8627 127.322 31.9756C127.48 32.0886 127.666 32.145 127.88 32.145C128.023 32.145 128.154 32.1185 128.271 32.0654C128.388 32.0123 128.487 31.936 128.567 31.8365C128.647 31.7371 128.703 31.6174 128.735 31.4774H129.471C129.444 31.7286 129.362 31.9529 129.225 32.1501C129.089 32.3473 128.906 32.5024 128.678 32.6154C128.45 32.7283 128.182 32.7848 127.875 32.7848Z" fill="url(#paint5_linear_1019_33137)"/>
<path d="M132.743 31.0956V28.8223H133.501V32.7064H132.758V32.0338H132.717C132.628 32.2411 132.485 32.4135 132.289 32.5509C132.092 32.6882 131.848 32.757 131.557 32.757C131.307 32.757 131.087 32.7018 130.895 32.5913C130.704 32.4809 130.554 32.317 130.445 32.0995C130.337 31.882 130.282 31.6131 130.282 31.2928V28.8223H131.038V31.2018C131.038 31.4665 131.112 31.6772 131.258 31.834C131.405 31.9907 131.595 32.0691 131.83 32.0691C131.971 32.0691 132.113 32.0338 132.253 31.9629C132.394 31.8921 132.511 31.7851 132.605 31.6418C132.698 31.4985 132.744 31.3164 132.743 31.0956Z" fill="url(#paint6_linear_1019_33137)"/>
<path d="M134.516 32.7064V28.8223H135.246V29.4393H135.287C135.358 29.2303 135.483 29.0655 135.663 28.945C135.842 28.8244 136.046 28.7642 136.273 28.7642C136.32 28.7642 136.376 28.7658 136.441 28.7692C136.506 28.7726 136.557 28.7768 136.594 28.7819V29.5051C136.564 29.4966 136.51 29.4869 136.433 29.476C136.355 29.465 136.277 29.4595 136.2 29.4595C136.021 29.4595 135.862 29.4971 135.723 29.5721C135.584 29.6471 135.474 29.7508 135.393 29.8831C135.312 30.0154 135.272 30.1659 135.272 30.3345V32.7064H134.516Z" fill="url(#paint7_linear_1019_33137)"/>
<path d="M137.251 32.7065V28.8224H138.008V32.7065H137.251ZM137.633 28.223C137.502 28.223 137.389 28.1788 137.296 28.0903C137.202 28.0018 137.155 27.896 137.155 27.7729C137.155 27.6482 137.202 27.5416 137.296 27.4531C137.389 27.3646 137.502 27.3203 137.633 27.3203C137.765 27.3203 137.877 27.3646 137.971 27.4531C138.064 27.5416 138.111 27.6482 138.111 27.7729C138.111 27.896 138.064 28.0018 137.971 28.0903C137.877 28.1788 137.765 28.223 137.633 28.223Z" fill="url(#paint8_linear_1019_33137)"/>
<path d="M140.838 28.8224V29.4293H138.716V28.8224H140.838ZM139.285 27.8918H140.041V31.5661C140.041 31.7128 140.063 31.8227 140.107 31.8961C140.15 31.9694 140.207 32.0191 140.277 32.0453C140.347 32.0714 140.424 32.0845 140.506 32.0845C140.567 32.0845 140.62 32.0803 140.666 32.0718C140.711 32.0634 140.746 32.0567 140.772 32.0516L140.908 32.6762C140.864 32.6931 140.802 32.7103 140.721 32.728C140.64 32.7457 140.539 32.7554 140.418 32.7571C140.219 32.7605 140.033 32.7251 139.861 32.6509C139.69 32.5767 139.55 32.4621 139.444 32.307C139.338 32.1519 139.285 31.9572 139.285 31.7229V27.8918Z" fill="url(#paint9_linear_1019_33137)"/>
<path d="M142.149 34.1528C142.036 34.1528 141.933 34.144 141.841 34.1263C141.748 34.1086 141.679 34.0896 141.633 34.0694L141.815 33.4498C142.023 33.5072 142.197 33.5118 142.338 33.4637C142.478 33.4157 142.597 33.2661 142.693 33.0149L142.786 32.757L141.365 28.8223H142.174L143.158 31.8365H143.199L144.182 28.8223L144.999 28.8298L143.393 33.2248C143.319 33.4254 143.225 33.5948 143.11 33.733C142.995 33.8713 142.859 33.9758 142.7 34.0466C142.542 34.1174 142.358 34.1528 142.149 34.1528Z" fill="url(#paint10_linear_1019_33137)"/>
<defs>
<filter id="filter0_dd_1019_33137" x="-0.000976562" y="0.0830078" width="38.001" height="38" filterUnits="userSpaceOnUse" color-interpolation-filters="sRGB">
<feFlood flood-opacity="0" result="BackgroundImageFix"/>
<feColorMatrix in="SourceAlpha" type="matrix" values="0 0 0 0 0 0 0 0 0 0 0 0 0 0 0 0 0 0 127 0" result="hardAlpha"/>
<feOffset dy="1"/>
<feGaussianBlur stdDeviation="1"/>
<feColorMatrix type="matrix" values="0 0 0 0 0.0627451 0 0 0 0 0.0941176 0 0 0 0 0.156863 0 0 0 0.06 0"/>
<feBlend mode="normal" in2="BackgroundImageFix" result="effect1_dropShadow_1019_33137"/>
<feColorMatrix in="SourceAlpha" type="matrix" values="0 0 0 0 0 0 0 0 0 0 0 0 0 0 0 0 0 0 127 0" result="hardAlpha"/>
<feOffset dy="1"/>
<feGaussianBlur stdDeviation="1.5"/>
<feColorMatrix type="matrix" values="0 0 0 0 0.0627451 0 0 0 0 0.0941176 0 0 0 0 0.156863 0 0 0 0.1 0"/>
<feBlend mode="normal" in2="effect1_dropShadow_1019_33137" result="effect2_dropShadow_1019_33137"/>
<feBlend mode="normal" in="SourceGraphic" in2="effect2_dropShadow_1019_33137" result="shape"/>
</filter>
<linearGradient id="paint0_linear_1019_33137" x1="9.15811" y1="28.5693" x2="14.3257" y2="32.7452" gradientUnits="userSpaceOnUse">
<stop stop-color="#4CA2E4"/>
<stop offset="1" stop-color="#1769B2"/>
</linearGradient>
<linearGradient id="paint1_linear_1019_33137" x1="23.9452" y1="28.4788" x2="28.6638" y2="32.8316" gradientUnits="userSpaceOnUse">
<stop stop-color="#4CA2E4"/>
<stop offset="1" stop-color="#1769B2"/>
</linearGradient>
<linearGradient id="paint2_linear_1019_33137" x1="16.6024" y1="16.6735" x2="21.2777" y2="21.0317" gradientUnits="userSpaceOnUse">
<stop stop-color="#4CA2E4"/>
<stop offset="1" stop-color="#1769B2"/>
</linearGradient>
<linearGradient id="paint3_linear_1019_33137" x1="118.3" y1="27.4104" x2="143.475" y2="34.0628" gradientUnits="userSpaceOnUse">
<stop stop-color="#4CA2E4"/>
<stop offset="1" stop-color="#1769B2"/>
</linearGradient>
<linearGradient id="paint4_linear_1019_33137" x1="118.3" y1="27.4104" x2="143.475" y2="34.0628" gradientUnits="userSpaceOnUse">
<stop stop-color="#4CA2E4"/>
<stop offset="1" stop-color="#1769B2"/>
</linearGradient>
<linearGradient id="paint5_linear_1019_33137" x1="118.301" y1="27.4104" x2="143.475" y2="34.0627" gradientUnits="userSpaceOnUse">
<stop stop-color="#4CA2E4"/>
<stop offset="1" stop-color="#1769B2"/>
</linearGradient>
<linearGradient id="paint6_linear_1019_33137" x1="118.3" y1="27.4104" x2="143.475" y2="34.0627" gradientUnits="userSpaceOnUse">
<stop stop-color="#4CA2E4"/>
<stop offset="1" stop-color="#1769B2"/>
</linearGradient>
<linearGradient id="paint7_linear_1019_33137" x1="118.301" y1="27.4104" x2="143.475" y2="34.0628" gradientUnits="userSpaceOnUse">
<stop stop-color="#4CA2E4"/>
<stop offset="1" stop-color="#1769B2"/>
</linearGradient>
<linearGradient id="paint8_linear_1019_33137" x1="118.3" y1="27.4104" x2="143.475" y2="34.0627" gradientUnits="userSpaceOnUse">
<stop stop-color="#4CA2E4"/>
<stop offset="1" stop-color="#1769B2"/>
</linearGradient>
<linearGradient id="paint9_linear_1019_33137" x1="118.301" y1="27.4105" x2="143.475" y2="34.0628" gradientUnits="userSpaceOnUse">
<stop stop-color="#4CA2E4"/>
<stop offset="1" stop-color="#1769B2"/>
</linearGradient>
<linearGradient id="paint10_linear_1019_33137" x1="118.3" y1="27.4104" x2="143.475" y2="34.0627" gradientUnits="userSpaceOnUse">
<stop stop-color="#4CA2E4"/>
<stop offset="1" stop-color="#1769B2"/>
</linearGradient>
</defs>
</svg>
